FFmpeg version SVN-r25716, Copyright (c) 2000-2010 the FFmpeg developers  built on Nov 10 2010 12:23:18 with gcc 4.1.2 20080704 (Red Hat 4.1.2-48)  configuration: --enable-libmp3lame --enable-shared --disable-mmx --arch=x86_64  libavutil     50.33. 0 / 50.33. 0  libavcore      0.12. 1 /  0.12. 1  libavcodec    52.94. 4 / 52.94. 4  libavformat   52.84. 0 / 52.84. 0  libavdevice   52. 2. 2 / 52. 2. 2  libavfilter    1.59. 0 /  1.59. 0  libswscale     0.12. 0 /  0.12. 0Seems stream 0 codec frame rate differs from container frame rate: 1200.00 (1200/1) -> 7.00 (7/1)Input #0, mov,mp4,m4a,3gp,3g2,mj2, from '/RAID10/data/converted_video_files/11987.mov':  Metadata:    major_brand     : qt      minor_version   : 537199360    compatible_brands: qt    Duration: 00:00:20.37, start: 0.000000, bitrate: 873 kb/s    Stream #0.0(eng): Video: h264, yuv420p, 664x224, 872 kb/s, 7.02 fps, 7 tbr, 600 tbn, 1200 tbc[buffer @ 0x10ec5750] w:664 h:224 pixfmt:yuv420pOutput #0, flv, to '/RAID10/data/converted_video_files/11987.flv':  Metadata:    encoder         : Lavf52.84.0    Stream #0.0(eng): Video: flv, yuv420p, 664x224, q=2-31, 600 kb/s, 1k tbn, 24 tbcStream mapping:  Stream #0.0 -> #0.0Press [q] to stop encodingframe=   64 fps=  0 q=3.7 size=     502kB time=9.04 bitrate= 455.2kbits/s    frame=  127 fps=123 q=2.8 size=     978kB time=18.04 bitrate= 444.1kbits/s    frame=  143 fps=123 q=3.0 Lsize=    1116kB time=20.33 bitrate= 449.5kbits/s    video:1113kB audio:0kB global headers:0kB muxing overhead 0.219140%